<svg xmlns="http://www.w3.org/2000/svg" width="24" height="24" viewBox="0 0 24 24">
    <path fill="#9B9B9B" fill-rule="evenodd" d="M15.246 19.827h2.94v-9.432L11.68 4.547l-6.507 5.848v9.432h2.941v-3.928c0-.6.486-1.086 1.087-1.086h4.958c.6 0 1.087.487 1.087 1.086v3.928zM19.274 22h-5.115c-.6 0-1.086-.486-1.086-1.087v-3.927h-2.786v3.927c0 .6-.487 1.087-1.086 1.087H4.087C3.487 22 3 21.514 3 20.913V9.91c0-.309.131-.603.36-.808l7.594-6.825c.412-.37 1.04-.37 1.452 0L20 9.103c.229.205.36.5.36.808v11.002c0 .6-.487 1.087-1.086 1.087z"/>
</svg>
